<mxfile host="app.diagrams.net" modified="2025-08-08T00:00:00.000Z" agent="5.0" etag="drawio-blog-architecture" version="21.6.5">
  <diagram name="Blog CI/CD Architecture" id="blog-cicd-architecture">
    <mxGraphModel dx="1422" dy="765" grid="1" gridSize="10" guides="1" tooltips="1" connect="1" arrows="1" fold="1" page="1" pageScale="1" pageWidth="1169" pageHeight="827" math="0" shadow="0">
      <root>
        <mxCell id="0"/>
        <mxCell id="1" parent="0"/>
        
        <!-- Developer Workflow -->
        <mxCell id="dev-1" value="Developer&#xa;(Local Code)" style="rounded=1;whiteSpace=wrap;html=1;fillColor=#dae8fc;strokeColor=#6c8ebf;" vertex="1" parent="1">
          <mxGeometry x="50" y="100" width="100" height="60" as="geometry"/>
        </mxCell>
        
        <!-- GitHub Repository -->
        <mxCell id="github-1" value="GitHub Repository&#xa;bedtimeblog/k8s" style="rounded=1;whiteSpace=wrap;html=1;fillColor=#d5e8d4;strokeColor=#82b366;" vertex="1" parent="1">
          <mxGeometry x="250" y="100" width="120" height="60" as="geometry"/>
        </mxCell>
        
        <!-- Webhook -->
        <mxCell id="webhook-1" value="GitHub Webhook&#xa;Trigger" style="rhombus;whiteSpace=wrap;html=1;fillColor=#fff2cc;strokeColor=#d6b656;" vertex="1" parent="1">
          <mxGeometry x="420" y="90" width="100" height="80" as="geometry"/>
        </mxCell>
        
        <!-- Jenkins Server -->
        <mxCell id="jenkins-1" value="Jenkins CI/CD Server&#xa;blog-k8s-deployment" style="rounded=1;whiteSpace=wrap;html=1;fillColor=#f8cecc;strokeColor=#b85450;" vertex="1" parent="1">
          <mxGeometry x="600" y="100" width="140" height="60" as="geometry"/>
        </mxCell>
        
        <!-- Build Process -->
        <mxCell id="build-1" value="Docker Build Process" style="rounded=1;whiteSpace=wrap;html=1;fillColor=#e1d5e7;strokeColor=#9673a6;" vertex="1" parent="1">
          <mxGeometry x="600" y="220" width="140" height="40" as="geometry"/>
        </mxCell>
        
        <mxCell id="build-2" value="Frontend Build&#xa;(React + Vite)" style="rounded=1;whiteSpace=wrap;html=1;fillColor=#e1d5e7;strokeColor=#9673a6;" vertex="1" parent="1">
          <mxGeometry x="480" y="300" width="100" height="50" as="geometry"/>
        </mxCell>
        
        <mxCell id="build-3" value="Backend Build&#xa;(Node.js API)" style="rounded=1;whiteSpace=wrap;html=1;fillColor=#e1d5e7;strokeColor=#9673a6;" vertex="1" parent="1">
          <mxGeometry x="720" y="300" width="100" height="50" as="geometry"/>
        </mxCell>
        
        <!-- Docker Registry -->
        <mxCell id="registry-1" value="Docker Registry&#xa;Container Images" style="rounded=1;whiteSpace=wrap;html=1;fillColor=#fad7ac;strokeColor=#b46504;" vertex="1" parent="1">
          <mxGeometry x="600" y="400" width="140" height="50" as="geometry"/>
        </mxCell>
        
        <!-- Kubernetes Cluster -->
        <mxCell id="k8s-cluster" value="Kubernetes Cluster" style="rounded=1;whiteSpace=wrap;html=1;fillColor=#d0cee2;strokeColor=#56517e;fontSize=14;fontStyle=1;" vertex="1" parent="1">
          <mxGeometry x="50" y="520" width="900" height="20" as="geometry"/>
        </mxCell>
        
        <!-- K8s Components -->
        <mxCell id="k8s-frontend" value="Frontend Pod&#xa;blog.ingasti.com" style="rounded=1;whiteSpace=wrap;html=1;fillColor=#cce5ff;strokeColor=#36393d;" vertex="1" parent="1">
          <mxGeometry x="100" y="580" width="120" height="60" as="geometry"/>
        </mxCell>
        
        <mxCell id="k8s-backend" value="Backend Pod&#xa;bapi.ingasti.com" style="rounded=1;whiteSpace=wrap;html=1;fillColor=#cce5ff;strokeColor=#36393d;" vertex="1" parent="1">
          <mxGeometry x="280" y="580" width="120" height="60" as="geometry"/>
        </mxCell>
        
        <mxCell id="k8s-db" value="PostgreSQL Database&#xa;Persistent Storage" style="rounded=1;whiteSpace=wrap;html=1;fillColor=#cce5ff;strokeColor=#36393d;" vertex="1" parent="1">
          <mxGeometry x="460" y="580" width="120" height="60" as="geometry"/>
        </mxCell>
        
        <mxCell id="k8s-ingress" value="Ingress Controller&#xa;Load Balancer" style="rounded=1;whiteSpace=wrap;html=1;fillColor=#cce5ff;strokeColor=#36393d;" vertex="1" parent="1">
          <mxGeometry x="640" y="580" width="120" height="60" as="geometry"/>
        </mxCell>
        
        <mxCell id="k8s-storage" value="Persistent Volumes&#xa;File Storage" style="rounded=1;whiteSpace=wrap;html=1;fillColor=#cce5ff;strokeColor=#36393d;" vertex="1" parent="1">
          <mxGeometry x="820" y="580" width="120" height="60" as="geometry"/>
        </mxCell>
        
        <!-- Users -->
        <mxCell id="users-1" value="End Users&#xa;Blog Visitors" style="rounded=1;whiteSpace=wrap;html=1;fillColor=#cdeb8b;strokeColor=#36393d;" vertex="1" parent="1">
          <mxGeometry x="100" y="720" width="100" height="50" as="geometry"/>
        </mxCell>
        
        <mxCell id="admin-1" value="Admin Users&#xa;Operations Panel" style="rounded=1;whiteSpace=wrap;html=1;fillColor=#cdeb8b;strokeColor=#36393d;" vertex="1" parent="1">
          <mxGeometry x="280" y="720" width="100" height="50" as="geometry"/>
        </mxCell>
        
        <!-- Arrows -->
        <mxCell id="arrow-1" style="edgeStyle=orthogonalEdgeStyle;rounded=0;orthogonalLoop=1;jettySize=auto;html=1;" edge="1" parent="1" source="dev-1" target="github-1">
          <mxGeometry relative="1" as="geometry"/>
        </mxCell>
        
        <mxCell id="arrow-2" style="edgeStyle=orthogonalEdgeStyle;rounded=0;orthogonalLoop=1;jettySize=auto;html=1;" edge="1" parent="1" source="github-1" target="webhook-1">
          <mxGeometry relative="1" as="geometry"/>
        </mxCell>
        
        <mxCell id="arrow-3" style="edgeStyle=orthogonalEdgeStyle;rounded=0;orthogonalLoop=1;jettySize=auto;html=1;" edge="1" parent="1" source="webhook-1" target="jenkins-1">
          <mxGeometry relative="1" as="geometry"/>
        </mxCell>
        
        <mxCell id="arrow-4" style="edgeStyle=orthogonalEdgeStyle;rounded=0;orthogonalLoop=1;jettySize=auto;html=1;" edge="1" parent="1" source="jenkins-1" target="build-1">
          <mxGeometry relative="1" as="geometry"/>
        </mxCell>
        
        <mxCell id="arrow-5" style="edgeStyle=orthogonalEdgeStyle;rounded=0;orthogonalLoop=1;jettySize=auto;html=1;" edge="1" parent="1" source="build-1" target="build-2">
          <mxGeometry relative="1" as="geometry"/>
        </mxCell>
        
        <mxCell id="arrow-6" style="edgeStyle=orthogonalEdgeStyle;rounded=0;orthogonalLoop=1;jettySize=auto;html=1;" edge="1" parent="1" source="build-1" target="build-3">
          <mxGeometry relative="1" as="geometry"/>
        </mxCell>
        
        <mxCell id="arrow-7" style="edgeStyle=orthogonalEdgeStyle;rounded=0;orthogonalLoop=1;jettySize=auto;html=1;" edge="1" parent="1" source="build-2" target="registry-1">
          <mxGeometry relative="1" as="geometry"/>
        </mxCell>
        
        <mxCell id="arrow-8" style="edgeStyle=orthogonalEdgeStyle;rounded=0;orthogonalLoop=1;jettySize=auto;html=1;" edge="1" parent="1" source="build-3" target="registry-1">
          <mxGeometry relative="1" as="geometry"/>
        </mxCell>
        
        <mxCell id="arrow-9" style="edgeStyle=orthogonalEdgeStyle;rounded=0;orthogonalLoop=1;jettySize=auto;html=1;" edge="1" parent="1" source="registry-1" target="k8s-frontend">
          <mxGeometry relative="1" as="geometry"/>
        </mxCell>
        
        <mxCell id="arrow-10" style="edgeStyle=orthogonalEdgeStyle;rounded=0;orthogonalLoop=1;jettySize=auto;html=1;" edge="1" parent="1" source="registry-1" target="k8s-backend">
          <mxGeometry relative="1" as="geometry"/>
        </mxCell>
        
        <mxCell id="arrow-11" style="edgeStyle=orthogonalEdgeStyle;rounded=0;orthogonalLoop=1;jettySize=auto;html=1;" edge="1" parent="1" source="users-1" target="k8s-frontend">
          <mxGeometry relative="1" as="geometry"/>
        </mxCell>
        
        <mxCell id="arrow-12" style="edgeStyle=orthogonalEdgeStyle;rounded=0;orthogonalLoop=1;jettySize=auto;html=1;" edge="1" parent="1" source="admin-1" target="k8s-backend">
          <mxGeometry relative="1" as="geometry"/>
        </mxCell>
        
        <!-- Labels -->
        <mxCell id="label-1" value="git push" style="text;html=1;strokeColor=none;fillColor=none;align=center;verticalAlign=middle;whiteSpace=wrap;rounded=0;fontSize=10;" vertex="1" parent="1">
          <mxGeometry x="170" y="80" width="60" height="20" as="geometry"/>
        </mxCell>
        
        <mxCell id="label-2" value="webhook" style="text;html=1;strokeColor=none;fillColor=none;align=center;verticalAlign=middle;whiteSpace=wrap;rounded=0;fontSize=10;" vertex="1" parent="1">
          <mxGeometry x="390" y="80" width="60" height="20" as="geometry"/>
        </mxCell>
        
        <mxCell id="label-3" value="trigger build" style="text;html=1;strokeColor=none;fillColor=none;align=center;verticalAlign=middle;whiteSpace=wrap;rounded=0;fontSize=10;" vertex="1" parent="1">
          <mxGeometry x="540" y="80" width="60" height="20" as="geometry"/>
        </mxCell>
        
        <mxCell id="label-4" value="deploy to k8s" style="text;html=1;strokeColor=none;fillColor=none;align=center;verticalAlign=middle;whiteSpace=wrap;rounded=0;fontSize=10;" vertex="1" parent="1">
          <mxGeometry x="500" y="480" width="80" height="20" as="geometry"/>
        </mxCell>
        
        <!-- Title -->
        <mxCell id="title-1" value="Blog CI/CD Pipeline Architecture" style="text;html=1;strokeColor=none;fillColor=none;align=center;verticalAlign=middle;whiteSpace=wrap;rounded=0;fontSize=16;fontStyle=1;" vertex="1" parent="1">
          <mxGeometry x="400" y="20" width="300" height="30" as="geometry"/>
        </mxCell>
        
      </root>
    </mxGraphModel>
  </diagram>
</mxfile>